<?xml version="1.0" encoding="UTF-8"?>
<svg version="1.1" xmlns="http://www.w3.org/2000/svg" width="192" height="192">
<path d="M0 0 C2.89191177 2.71357721 5.7054929 5.49893944 8.5 8.3125 C9.03625 8.003125 9.5725 7.69375 10.125 7.375 C17.90388809 3.89497112 29.4364995 4.02017632 37.546875 6.5078125 C47.49760075 10.60751151 54.92886838 17.32221471 60.4375 26.5625 C63.59641077 37.71159682 65.0758662 49.20720329 60.26953125 60.1015625 C55.9416624 67.78265949 50.1202005 73.88215087 42.5 78.3125 C41.84 78.3125 41.18 78.3125 40.5 78.3125 C40.83 79.3025 41.16 80.2925 41.5 81.3125 C42.28926682 93.97112547 40.53783184 103.63082032 33.5 114.3125 C31 117.125 31 117.125 28.5 119.3125 C27.778125 119.9725 27.05625 120.6325 26.3125 121.3125 C15.20731623 129.20951957 4.76757633 130.36895487 -8.5 129.3125 C-15.10278517 127.88420902 -20.15201298 124.43979929 -25.39453125 120.2890625 C-27.52191969 119.02801608 -27.52191969 119.02801608 -30.0234375 119.99609375 C-32.86366486 121.50580451 -35.48787052 123.18911129 -38.14453125 124.99609375 C-44.63920667 128.62578797 -50.46374302 129.84408749 -57.875 129.75 C-58.71135986 129.74242676 -59.54771973 129.73485352 -60.40942383 129.72705078 C-71.54608625 129.43007312 -79.44071147 125.16981225 -87.375 117.5 C-94.57391321 109.80461002 -98.25283631 101.87313031 -98.5 91.3125 C-99.3353125 91.18294922 -99.3353125 91.18294922 -100.1875 91.05078125 C-109.08745378 89.41210733 -114.83371472 85.88695376 -120.17578125 78.5703125 C-123.99995564 72.05003876 -125.05577719 66.99744214 -125 59.5 C-124.99427979 58.6128833 -124.98855957 57.7257666 -124.98266602 56.81176758 C-124.73908859 47.89125695 -122.24379046 42.13405 -116.3125 35.5 C-112.3144181 31.78372123 -106.1426486 27.3125 -100.5 27.3125 C-100.17 26.075 -99.84 24.8375 -99.5 23.5625 C-94.59352027 8.98062565 -82.88656354 -2.62746307 -69.5 -9.6875 C-65.8859419 -11.21580992 -62.24205728 -12.51178606 -58.5 -13.6875 C-57.51 -14.0175 -56.52 -14.3475 -55.5 -14.6875 C-34.64103865 -17.80077781 -15.98778996 -14.27145368 0 0 Z " fill="#BCDDF3" transform="translate(124.5,20.6875)"/>
<path d="M0 0 C4.39341017 2.99261272 6.56580922 7.67139867 8.125 12.625 C8.55671913 16.92704328 7.42574488 20.06647379 5.375 23.875 C1.58366277 28.50885661 -1.95886636 31.3234506 -7.875 32.625 C-13.32640531 32.42676708 -17.65017568 31.0445979 -21.875 27.625 C-25.87117738 22.60416176 -26.45691123 18.57650663 -26.1953125 12.2109375 C-25.59162278 7.33724733 -23.93620628 4.60661581 -20.375 1.3125 C-14.69493411 -2.52154447 -6.24905976 -2.9318276 0 0 Z " fill="#BCDCF3" transform="translate(30.875,150.375)"/>
</svg>
